<svg width="34" height="21" viewBox="0 0 34 21" fill="none" xmlns="http://www.w3.org/2000/svg">
<path d="M21.4107 2.6438H12.6621V18.2732H21.4107V2.6438Z" fill="#FF5F00"/>
<path d="M13.2148 10.4584C13.2134 8.95315 13.5565 7.46734 14.2181 6.11343C14.8797 4.75952 15.8425 3.573 17.0336 2.64369C15.5586 1.49112 13.7872 0.774361 11.9218 0.575324C10.0565 0.376286 8.17243 0.703 6.48502 1.51813C4.79762 2.33327 3.37494 3.60394 2.3796 5.18489C1.38427 6.76584 0.856445 8.59329 0.856445 10.4584C0.856445 12.3234 1.38427 14.1509 2.3796 15.7318C3.37494 17.3128 4.79762 18.5835 6.48502 19.3986C8.17243 20.2137 10.0565 20.5404 11.9218 20.3414C13.7872 20.1424 15.5586 19.4256 17.0336 18.273C15.8425 17.3437 14.8797 16.1572 14.2181 14.8033C13.5565 13.4494 13.2134 11.9636 13.2148 10.4584Z" fill="#EB001B"/>
<path d="M33.2118 10.4584C33.2119 12.3234 32.6841 14.1509 31.6888 15.7318C30.6935 17.3128 29.2709 18.5834 27.5835 19.3986C25.8961 20.2137 24.0121 20.5404 22.1468 20.3414C20.2815 20.1424 18.5101 19.4256 17.0352 18.273C18.2252 17.3428 19.1872 16.1561 19.8487 14.8024C20.5102 13.4487 20.8539 11.9633 20.8539 10.4584C20.8539 8.95338 20.5102 7.46804 19.8487 6.11435C19.1872 4.76065 18.2252 3.57394 17.0352 2.64369C18.5101 1.49112 20.2815 0.774356 22.1468 0.575321C24.0121 0.376286 25.8961 0.703014 27.5835 1.51816C29.2709 2.3333 30.6935 3.60397 31.6888 5.18492C32.6841 6.76587 33.2119 8.59331 33.2118 10.4584Z" fill="#F79E1B"/>
<path d="M32.2525 16.618V16.298H32.3823V16.2328H32.0518V16.298H32.1816V16.618H32.2525ZM32.8942 16.618V16.2322H32.7929L32.6764 16.4975L32.5598 16.2322H32.4584V16.618H32.53V16.327L32.6393 16.5779H32.7134L32.8227 16.3263V16.618H32.8942Z" fill="#F79E1B"/>
</svg>
