<svg width="168" height="168" viewBox="0 0 168 168" fill="none" xmlns="http://www.w3.org/2000/svg">
<path d="M155.404 38.3511C166.032 56.0085 170.023 76.9201 166.654 97.2897C163.337 117.424 152.875 135.659 137.212 148.603C121.55 161.548 101.754 168.32 81.5068 167.66C66.5241 167.2 51.9429 162.672 39.3035 154.553C26.6642 146.434 16.4359 135.027 9.69948 121.536C2.96301 108.045 -0.0315685 92.9715 1.03206 77.9076C2.09569 62.8438 7.17804 48.349 15.7422 35.9547C27.3815 19.4432 44.4722 7.64259 63.9567 2.66409C83.5821 -2.115 104.26 0.391332 122.2 9.72377C122.343 9.78409 122.473 9.8737 122.58 9.98693C122.687 10.1002 122.77 10.2346 122.823 10.3817C122.877 10.5288 122.899 10.6854 122.889 10.8416C122.879 10.9979 122.837 11.1504 122.766 11.2895C122.695 11.4286 122.596 11.5514 122.475 11.65C122.354 11.7486 122.215 11.821 122.065 11.8625C121.915 11.904 121.758 11.9138 121.604 11.8913C121.451 11.8688 121.303 11.8144 121.171 11.7316C103.716 2.52536 83.5574 -0.0493219 64.3746 4.47758C45.2113 9.23618 28.3574 20.7171 16.8351 36.8614C8.33224 49.0098 3.24606 63.2474 2.11444 78.0687C0.982823 92.8899 3.84784 107.744 10.4065 121.059C14.8478 129.906 20.8116 137.888 28.0208 144.635C42.5302 158.188 61.483 165.886 81.2653 166.262C101.048 166.639 120.275 159.666 135.282 146.675C150.156 134.012 159.929 116.313 162.764 96.9034C165.599 77.4934 161.301 57.7084 150.679 41.2656C150.435 40.9634 150.257 40.6131 150.156 40.2373C150.055 39.8615 150.033 39.4685 150.092 39.0837C150.151 38.699 150.29 38.3309 150.499 38.0034C150.708 37.6759 150.983 37.3962 151.306 37.1824C151.629 36.9685 151.992 36.8252 152.374 36.7618C152.755 36.6984 153.145 36.7162 153.519 36.8141C153.893 36.912 154.243 37.0879 154.545 37.3303C154.848 37.5727 155.096 37.8763 155.275 38.2215L155.404 38.3511Z" fill="white"/>
<path d="M134.863 31.9065C122.287 19.3471 105.636 11.781 87.9668 10.598C79.1858 10.0648 70.3823 11.1625 61.9953 13.8363C53.5556 16.2823 45.6421 20.2907 38.6594 25.6565C24.5211 36.6021 14.8329 52.3691 11.4123 69.9995C7.99176 87.6298 11.074 105.912 20.0808 121.415C29.0207 136.904 43.3092 148.533 60.2185 154.082C77.1278 159.631 95.4733 158.712 111.753 151.5C127.821 144.557 140.815 131.933 148.287 116.007C155.759 100.081 157.192 81.952 152.317 65.0352C152.216 64.6865 152.184 64.3211 152.223 63.9598C152.261 63.5986 152.371 63.2486 152.544 62.9299C152.717 62.6111 152.95 62.3298 153.231 62.1021C153.513 61.8743 153.835 61.7046 154.181 61.6025C154.528 61.5004 154.89 61.4681 155.249 61.5072C155.607 61.5464 155.955 61.6563 156.271 61.8307C156.587 62.0051 156.867 62.2406 157.093 62.5237C157.319 62.8068 157.487 63.132 157.589 63.4808C162.105 81.5555 160.041 100.663 151.771 117.335C144.673 131.573 133.313 143.204 119.296 150.584C105.28 157.963 89.3165 160.718 73.6615 158.459C58.0066 156.2 43.452 149.042 32.055 137.996C20.658 126.949 12.9948 112.574 10.1486 96.9009C7.87298 83.4839 9.23732 69.6968 14.0974 56.9966C18.9575 44.2965 27.1329 33.155 37.7594 24.7497C52.1082 13.5774 69.9524 7.9485 88.0632 8.88163C106.176 10.0105 123.285 17.6523 136.278 30.4169C136.384 30.5196 136.468 30.6428 136.526 30.7792C136.583 30.9155 136.613 31.0621 136.613 31.2103C136.613 31.3584 136.583 31.5051 136.526 31.6414C136.468 31.7777 136.384 31.901 136.278 32.0037C136.067 32.2114 135.785 32.3277 135.49 32.3277C135.196 32.3277 134.913 32.2114 134.703 32.0037L134.863 31.9065Z" fill="white"/>
<path d="M152.093 86.1823C151.235 102.785 144.495 118.526 133.097 130.548C121.885 142.42 106.779 149.79 90.5818 151.29C74.3851 152.791 58.198 148.321 45.0249 138.709C35.2785 131.632 27.6094 122.034 22.827 110.931C18.0447 99.8269 16.3266 87.6282 17.854 75.6223C19.3814 63.6165 24.0978 52.2487 31.5052 42.7191C38.9126 33.1894 48.7362 25.8513 59.9392 21.4793C75.0513 15.73 91.7039 15.6037 106.9 21.1231C122.083 26.8229 134.724 37.8344 142.515 52.1468C142.61 52.4033 142.611 52.686 142.516 52.9427C142.42 53.1994 142.236 53.4126 141.997 53.543C141.758 53.6734 141.48 53.712 141.215 53.6518C140.949 53.5916 140.715 53.4366 140.554 53.2155C133.092 39.2816 120.909 28.5128 106.225 22.8719C91.4496 17.4098 75.2292 17.4098 60.4535 22.8719C45.6494 28.4036 33.3654 39.2007 25.9175 53.2275C18.4695 67.2543 16.3722 83.5417 20.021 99.0189C23.6698 114.496 32.8126 128.094 45.7256 137.248C58.6386 146.403 74.4296 150.481 90.1215 148.715C105.516 147.001 119.756 139.674 130.159 128.113C140.561 116.553 146.408 101.558 146.597 85.9556C146.601 85.5913 146.677 85.2315 146.82 84.897C146.963 84.5625 147.171 84.26 147.431 84.0069C147.691 83.7539 147.999 83.5554 148.335 83.423C148.672 83.2905 149.032 83.2267 149.393 83.2353C149.753 83.2352 150.11 83.3077 150.442 83.4484C150.773 83.5892 151.074 83.7953 151.326 84.0548C151.577 84.3143 151.775 84.6219 151.906 84.9594C152.038 85.297 152.102 85.6577 152.093 86.0203V86.1823Z" fill="white"/>
<path d="M43.32 78.9927V78.6688C43.32 76.9849 42.0021 76.0134 39.7199 76.0134C37.4378 76.0134 36.2806 76.7906 36.2806 78.0535C36.2806 79.3165 36.8914 79.4784 38.1128 79.8023L42.1628 80.709C43.784 80.9644 45.306 81.6583 46.5664 82.7168C47.0852 83.2083 47.4918 83.8074 47.7582 84.4728C48.0246 85.1382 48.1444 85.8539 48.1093 86.5705C48.1093 90.748 44.895 93.3063 39.7521 93.3063C34.6092 93.3063 31.2021 90.7156 31.1699 86.1819H35.6699C35.6699 88.4811 37.0521 89.4203 39.7842 89.4203C42.5164 89.4203 43.5128 88.5783 43.5128 87.1534C43.5128 85.7285 42.8057 85.4694 41.3592 85.1132L37.7271 84.2065C36.155 83.9302 34.6689 83.287 33.3878 82.3282C32.8473 81.8229 32.4234 81.2044 32.1457 80.5162C31.868 79.828 31.7434 79.0869 31.7806 78.345C31.7806 74.4589 34.7378 72.1273 39.8164 72.1273C41.1014 71.9887 42.4003 72.1803 43.5919 72.6843C44.7835 73.1883 45.829 73.9882 46.6307 75.0094C47.3582 76.1774 47.7684 77.5176 47.82 78.8955L43.32 78.9927Z" fill="white"/>
<path d="M69.0359 92.8531H63.6359L57.5608 83.7209L55.6965 85.6315V92.8531H51.293V72.678H55.6965V80.1263L62.4466 72.678H68.3609L60.6466 80.7092L69.0359 92.8531Z" fill="white"/>
<path d="M87.0677 72.678V86.3116C87.1818 87.3032 87.0441 88.3077 86.6674 89.231C86.2907 90.1543 85.6874 90.966 84.9141 91.5902C83.1595 92.7101 81.1251 93.3048 79.048 93.3048C76.9709 93.3048 74.9365 92.7101 73.1819 91.5902C72.4028 90.9696 71.7933 90.1594 71.4109 89.2359C71.0285 88.3124 70.8858 87.306 70.9962 86.3116V72.678H75.4641V86.0201C75.3942 86.4778 75.4336 86.9456 75.5789 87.3849C75.7242 87.8241 75.9714 88.2222 76.2998 88.5461C77.0697 89.175 78.0418 89.4976 79.032 89.4528C80.01 89.481 80.9663 89.1598 81.732 88.5461C82.0484 88.2148 82.2854 87.8149 82.4246 87.377C82.5639 86.9392 82.6019 86.475 82.5355 86.0201V72.678H87.0677Z" fill="white"/>
<path d="M93.5923 92.853H91.5352V72.6778H99.1852C100.851 72.4913 102.524 72.9677 103.846 74.0056C104.921 75.1976 105.517 76.7505 105.517 78.3612C105.517 79.9719 104.921 81.5248 103.846 82.7168C102.524 83.7547 100.851 84.2311 99.1852 84.0446H93.528L93.5923 92.853ZM98.4459 82.3282C101.982 82.3282 103.557 81.13 103.557 78.3774C103.591 77.8074 103.496 77.2369 103.279 76.7095C103.062 76.182 102.728 75.7113 102.303 75.3333C101.162 74.5845 99.8004 74.253 98.4459 74.3942H93.5923V82.3282H98.4459Z" fill="white"/>
<path d="M109.793 86.506L107.415 92.9828H105.39L113.104 72.8076H115.225L123.1 92.9828H121.043L118.568 86.506H109.793ZM114.036 74.783L110.308 84.8868H117.893L114.036 74.783Z" fill="white"/>
<path d="M130.847 93.3585H128.951V84.453L121.333 73.1187H123.679L129.915 82.8338L136.087 73.1187H138.401L130.847 84.453V93.3585Z" fill="white"/>
<path d="M39.4324 61.4731C39.4324 60.8902 39.1109 60.5664 38.3395 60.5664C37.5681 60.5664 37.0859 60.8254 36.9895 61.2788C36.8931 61.7322 36.9895 61.7646 37.5359 61.8941L38.886 62.218C39.4263 62.2886 39.9316 62.5262 40.3324 62.898C40.4821 63.0865 40.5863 63.3076 40.6365 63.5437C40.6867 63.7797 40.6816 64.0244 40.6217 64.2581C40.4273 64.9586 40.0044 65.5727 39.4213 66.0016C38.8382 66.4304 38.1288 66.649 37.4074 66.6222C35.5109 66.6222 34.5788 65.7154 34.8359 64.1286H36.4109C36.4109 64.9382 36.7002 65.2944 37.6645 65.2944C38.6288 65.2944 39.0145 65.003 39.111 64.4848C39.2074 63.9667 39.1109 63.9019 38.4681 63.7724L37.2467 63.4485C36.7298 63.3524 36.2441 63.13 35.8324 62.8009C35.6744 62.6103 35.563 62.385 35.5072 62.1431C35.4514 61.9013 35.4526 61.6496 35.5109 61.4084C35.6863 60.7107 36.1116 60.103 36.7051 59.7024C37.2985 59.3019 38.0181 59.1367 38.7252 59.2386C39.1515 59.1744 39.5872 59.2348 39.9804 59.4128C40.3735 59.5908 40.7077 59.8788 40.9431 60.2425C41.0735 60.6864 41.0735 61.1588 40.9431 61.6027L39.4324 61.4731Z" fill="white"/>
<path d="M47.6929 66.3307H45.7964L44.2536 63.0924L43.4821 63.74L43.0321 66.2984H41.4893L42.7107 59.2063H44.2857L43.8036 61.8294L46.6321 59.2063H48.7215L45.5071 61.9913L47.6929 66.3307Z" fill="white"/>
<path d="M55.6964 59.2385L54.8607 64.0313C54.8245 64.401 54.7077 64.7582 54.5188 65.0772C54.3299 65.3963 54.0735 65.6694 53.7678 65.8772C53.1211 66.2774 52.373 66.4799 51.6142 66.4601C50.9151 66.486 50.2267 66.2813 49.6535 65.8772C49.4187 65.6402 49.2549 65.3413 49.181 65.0148C49.1071 64.6883 49.126 64.3475 49.2356 64.0313L50.0714 59.2385H51.6464L50.8428 63.9342C50.8428 64.3875 50.8428 64.6142 50.8428 64.8085C50.9635 64.9207 51.1054 65.0072 51.2601 65.0628C51.4147 65.1184 51.5789 65.1421 51.7428 65.1324C52.0992 65.1244 52.4454 65.0118 52.7392 64.8085C52.8641 64.6989 52.9655 64.5649 53.0373 64.4146C53.1092 64.2643 53.1499 64.1008 53.1571 63.9342L53.9928 59.2385H55.6964Z" fill="white"/>
<path d="M59.9385 62.8979H58.717L58.2027 61.8616L57.367 62.8979H56.1777L57.817 60.9873L56.9492 59.2385H58.1063L58.5563 60.1777L59.2635 59.2385H60.4528L58.9742 60.9873L59.9385 62.8979Z" fill="white"/>
</svg>
