<svg width="24" height="24" viewBox="0 0 24 24" fill="none" xmlns="http://www.w3.org/2000/svg">
<path fill-rule="evenodd" clip-rule="evenodd" d="M10 2C9.44772 2 9 2.44772 9 3C9 3.55228 9.44772 4 10 4H14C14.5523 4 15 3.55228 15 3C15 2.44772 14.5523 2 14 2H10ZM3.5 6C3.5 5.44772 3.94772 5 4.5 5H6H18H19.5C20.0523 5 20.5 5.44772 20.5 6C20.5 6.55228 20.0523 7 19.5 7H19V18.75C19 20.5565 17.514 22 15.731 22H8.231C6.42468 22 5 20.5342 5 18.75V7H4.5C3.94772 7 3.5 6.55228 3.5 6ZM7 18.75V7H17V18.75C17 19.4295 16.432 20 15.731 20H8.231C7.55132 20 7 19.4518 7 18.75ZM14 9C14.5523 9 15 9.44772 15 10V17C15 17.5523 14.5523 18 14 18C13.4477 18 13 17.5523 13 17V10C13 9.44772 13.4477 9 14 9ZM11 10C11 9.44772 10.5523 9 10 9C9.44772 9 9 9.44772 9 10V17C9 17.5523 9.44772 18 10 18C10.5523 18 11 17.5523 11 17V10Z" fill="#F50041"/>
</svg>
