<svg width="24" height="24" viewBox="0 0 24 24" fill="none" xmlns="http://www.w3.org/2000/svg">
<path fill-rule="evenodd" clip-rule="evenodd" d="M20.208 12.1947C20.208 11.5884 20.1536 11.0054 20.0525 10.4458H12V13.7531H16.6015C16.4032 14.8218 15.8009 15.7274 14.8953 16.3336V18.4789H17.6585C19.2753 16.9904 20.208 14.7985 20.208 12.1947Z" fill="#4285F4"/>
<path fill-rule="evenodd" clip-rule="evenodd" d="M12 20.55C14.3085 20.55 16.2439 19.7844 17.6585 18.4786L14.8953 16.3333C14.1297 16.8463 13.1503 17.1494 12 17.1494C9.77308 17.1494 7.88819 15.6454 7.21585 13.6245H4.35938V15.8397C5.76624 18.634 8.65769 20.55 12 20.55Z" fill="#34A853"/>
<path fill-rule="evenodd" clip-rule="evenodd" d="M7.21608 13.6244C7.04508 13.1114 6.94792 12.5634 6.94792 11.9999C6.94792 11.4364 7.04508 10.8884 7.21608 10.3754V8.16016H4.3596C3.78054 9.31441 3.4502 10.6202 3.4502 11.9999C3.4502 13.3795 3.78054 14.6854 4.3596 15.8396L7.21608 13.6244Z" fill="#FBBC05"/>
<path fill-rule="evenodd" clip-rule="evenodd" d="M12 6.85076C13.2553 6.85076 14.3823 7.28215 15.2684 8.12938L17.7207 5.67708C16.24 4.29742 14.3046 3.4502 12 3.4502C8.65769 3.4502 5.76624 5.36617 4.35938 8.16047L7.21585 10.3757C7.88819 8.35479 9.77308 6.85076 12 6.85076Z" fill="#EA4335"/>
</svg>
