<svg width="24" height="24" viewBox="0 0 24 24" fill="none" xmlns="http://www.w3.org/2000/svg">
<path d="M14.163 20.9999L18.607 20.0119C19.421 19.8319 20 19.1099 20 18.2769V5.76589C20 4.93289 19.421 4.21089 18.608 4.03089L14.164 3.04289C13.053 2.79589 12 3.64089 12 4.77889V19.2649C12 20.4019 13.053 21.2469 14.163 20.9999V20.9999Z" stroke="#232A51" stroke-width="2" stroke-linecap="round" stroke-linejoin="round"/>
<path d="M15 10.98V12.98" stroke="#232A51" stroke-width="2" stroke-linecap="round" stroke-linejoin="round"/>
<path d="M4 16V18.042C4 19.147 4.895 20.042 6 20.042H9" stroke="#232A51" stroke-width="2" stroke-linecap="round" stroke-linejoin="round"/>
<path d="M4 8V6C4 4.895 4.895 4 6 4H9" stroke="#232A51" stroke-width="2" stroke-linecap="round" stroke-linejoin="round"/>
<path d="M4 12H9" stroke="#232A51" stroke-width="2" stroke-linecap="round" stroke-linejoin="round"/>
<path d="M7 14L9 12L7 10" stroke="#232A51" stroke-width="2" stroke-linecap="round" stroke-linejoin="round"/>
</svg>
