<svg width="24" height="24" viewBox="0 0 24 24" fill="none" xmlns="http://www.w3.org/2000/svg">
<g opacity="0.8">
<path d="M22 15.236V18C22 18.552 21.552 19 21 19H3C2.448 19 2 18.552 2 18V15.236C2 15.091 2.082 14.959 2.211 14.894C3.308 14.346 4 13.226 4 12C4 10.774 3.307 9.654 2.211 9.106C2.082 9.041 2 8.909 2 8.764V6C2 5.448 2.448 5 3 5H21C21.552 5 22 5.448 22 6V8.764C22 8.909 21.918 9.041 21.789 9.106L21.745 9.129C20.673 9.685 20 10.792 20 12C20 13.225 20.692 14.346 21.788 14.894H21.789C21.918 14.959 22 15.091 22 15.236Z" stroke="#232A51" stroke-width="2" stroke-linecap="round" stroke-linejoin="round"/>
<path d="M9.42969 14.5701L14.4297 9.57007" stroke="#232A51" stroke-width="2" stroke-linecap="round" stroke-linejoin="round"/>
<path d="M14 14.5L14 14.4964C13.998 14.224 14.2195 14 14.496 14C14.7772 14 15 14.2254 15 14.5C15 14.7758 14.7759 15 14.5 15C14.2242 15 14 14.7758 14 14.5Z" stroke="#232A51" stroke-linecap="round" stroke-linejoin="round"/>
<path d="M9.00004 9.49999L9.00001 9.49636C8.99804 9.22404 9.21946 9 9.49601 9C9.77716 9 10 9.22544 10 9.49999C10 9.77584 9.77586 9.99997 9.50001 9.99997C9.22416 9.99997 9.00003 9.77584 9.00004 9.49999Z" stroke="#232A51" stroke-linecap="round" stroke-linejoin="round"/>
</g>
</svg>
