<svg width="40" height="40" viewBox="0 0 40 40" fill="none" xmlns="http://www.w3.org/2000/svg">
<circle opacity="0.12" cx="20" cy="20" r="20" fill="#232A51"/>
<path d="M22.4749 12.5251C23.8417 13.892 23.8417 16.108 22.4749 17.4749C21.108 18.8417 18.892 18.8417 17.5251 17.4749C16.1583 16.108 16.1583 13.892 17.5251 12.5251C18.892 11.1583 21.108 11.1583 22.4749 12.5251" stroke="white" stroke-width="2" stroke-linecap="round" stroke-linejoin="round"/>
<path d="M12 26.5001V27.5001C12 28.0521 12.448 28.5001 13 28.5001H27C27.552 28.5001 28 28.0521 28 27.5001V26.5001C28 23.4741 24.048 21.5081 20 21.5081C15.952 21.5081 12 23.4741 12 26.5001Z" stroke="white" stroke-width="2" stroke-linecap="round" stroke-linejoin="round"/>
</svg>
