<svg width="40" height="40" viewBox="0 0 40 40" fill="none" xmlns="http://www.w3.org/2000/svg">
<g opacity="0.32">
<path d="M6.66699 26.1117V8.33333C6.66699 6.49167 8.15866 5 10.0003 5H30.0003C31.842 5 33.3337 6.49167 33.3337 8.33333V26.1117C33.3337 27.3217 32.677 28.4383 31.6187 29.025L21.6187 34.58C20.612 35.14 19.387 35.14 18.3803 34.58L8.38033 29.025C7.32366 28.4367 6.66699 27.3217 6.66699 26.1117Z" stroke="#232A51" stroke-width="3.33333" stroke-linecap="round" stroke-linejoin="round"/>
<path d="M18.0035 23.1817L19.3869 22.4551C19.7719 22.2534 20.2319 22.2534 20.6169 22.4551L22.0002 23.1817C22.4469 23.4167 22.9852 23.3767 23.3919 23.0801L23.9085 22.7051C24.3152 22.4101 24.5185 21.9084 24.4352 21.4134L24.1702 19.8734C24.0969 19.4451 24.2385 19.0067 24.5502 18.7034L25.6685 17.6134C26.0285 17.2617 26.1585 16.7367 26.0035 16.2584L25.8069 15.6517C25.6519 15.1734 25.2385 14.8251 24.7402 14.7517L23.1935 14.5267C22.7635 14.4651 22.3919 14.1934 22.1985 13.8034L21.5069 12.4017C21.2819 11.9517 20.8219 11.6667 20.3185 11.6667H19.6802C19.1769 11.6667 18.7169 11.9517 18.4952 12.4034L17.8035 13.8051C17.6102 14.1951 17.2385 14.4667 16.8085 14.5284L15.2635 14.7517C14.7652 14.8251 14.3519 15.1734 14.1969 15.6517L14.0002 16.2584C13.8452 16.7367 13.9735 17.2617 14.3352 17.6134L15.4535 18.7034C15.7652 19.0067 15.9069 19.4451 15.8335 19.8734L15.5685 21.4134C15.4835 21.9101 15.6885 22.4101 16.0952 22.7051L16.6119 23.0801C17.0185 23.3751 17.5569 23.4151 18.0035 23.1817V23.1817Z" stroke="#232A51" stroke-width="3.33333" stroke-linecap="round" stroke-linejoin="round"/>
</g>
</svg>
