<svg width="40" height="40" viewBox="0 0 40 40" fill="none" xmlns="http://www.w3.org/2000/svg">
<g opacity="0.32">
<path d="M31.6667 35H8.33333C6.49167 35 5 33.5083 5 31.6667V8.33333C5 6.49167 6.49167 5 8.33333 5H31.6667C33.5083 5 35 6.49167 35 8.33333V31.6667C35 33.5083 33.5083 35 31.6667 35Z" stroke="#232A51" stroke-width="3.33333" stroke-linecap="round" stroke-linejoin="round"/>
<path d="M19.9985 25.7084L23.9985 27.7934C24.7769 28.2001 25.6869 27.5434 25.5385 26.6834L24.7752 22.2651L28.0119 19.1367C28.6419 18.5267 28.2952 17.4651 27.4235 17.3401L22.9519 16.6951L20.9519 12.6717C20.5619 11.8884 19.4369 11.8884 19.0485 12.6717L17.0485 16.6951L12.5769 17.3401C11.7069 17.4651 11.3585 18.5284 11.9885 19.1367L15.2252 22.2651L14.4619 26.6834C14.3135 27.5434 15.2235 28.2001 16.0019 27.7934L20.0019 25.7084" stroke="#232A51" stroke-width="3.33333" stroke-linecap="round" stroke-linejoin="round"/>
</g>
</svg>
