<svg width="48" height="48" viewBox="0 0 48 48" fill="none" xmlns="http://www.w3.org/2000/svg">
<g opacity="0.64">
<path d="M13 16V24" stroke="#232A51" stroke-width="4" stroke-linecap="round" stroke-linejoin="round"/>
<path d="M20.3398 16V24" stroke="#232A51" stroke-width="4" stroke-linecap="round" stroke-linejoin="round"/>
<path d="M27.6602 16V24" stroke="#232A51" stroke-width="4" stroke-linecap="round" stroke-linejoin="round"/>
<path d="M14 42H12V42C8.6863 42 6 39.3137 6 36V36V34" stroke="#232A51" stroke-width="4" stroke-linecap="round" stroke-linejoin="round"/>
<path d="M34 6H36V6C39.3137 6 42 8.6863 42 12V14" stroke="#232A51" stroke-width="4" stroke-linecap="round" stroke-linejoin="round"/>
<path d="M6 14V12V12C6 8.6863 8.6863 6 12 6H14" stroke="#232A51" stroke-width="4" stroke-linecap="round" stroke-linejoin="round"/>
<path d="M42 34V36C42 39.3137 39.3137 42 36 42H34" stroke="#232A51" stroke-width="4" stroke-linecap="round" stroke-linejoin="round"/>
<path d="M13 30V34" stroke="#232A51" stroke-width="4" stroke-linecap="round" stroke-linejoin="round"/>
<path d="M20.3398 30V34" stroke="#232A51" stroke-width="4" stroke-linecap="round" stroke-linejoin="round"/>
<path d="M27.6602 30.26V34" stroke="#232A51" stroke-width="4" stroke-linecap="round" stroke-linejoin="round"/>
<path d="M35 30.26V34" stroke="#232A51" stroke-width="4" stroke-linecap="round" stroke-linejoin="round"/>
<path d="M35 16V24" stroke="#232A51" stroke-width="4" stroke-linecap="round" stroke-linejoin="round"/>
<path d="M8 24H40" stroke="#232A51" stroke-width="4" stroke-linecap="round" stroke-linejoin="round"/>
</g>
</svg>
