<svg width="62" height="26" viewBox="0 0 62 26" fill="none" xmlns="http://www.w3.org/2000/svg">
<path fill-rule="evenodd" clip-rule="evenodd" d="M13.1768 6.65411V6.3543C13.4385 4.8178 12.3918 3.93712 10.2984 3.93712C8.20487 3.93712 7.04591 4.64915 6.8403 5.81089C6.71569 6.57289 7.18299 7.09759 8.24219 7.3849L11.7937 8.22807C13.205 8.44399 14.5129 9.09952 15.532 10.1018C15.932 10.5771 16.212 11.1419 16.3487 11.7484C16.4853 12.355 16.4745 12.9856 16.3171 13.5871C15.6441 17.3346 12.3357 19.733 7.58802 19.733C2.84031 19.733 0.204736 17.3721 0.896332 13.2685H5.00855C4.72817 15.3484 5.73749 16.2853 8.24219 16.2853C10.3544 16.2853 11.7749 15.5171 11.9805 14.2242C12.1301 13.3247 11.5881 12.6877 10.3171 12.3504L7.15815 11.5259C5.77909 11.3137 4.48536 10.7236 3.41979 9.82078C3.00253 9.33259 2.70968 8.75017 2.56643 8.12354C2.42318 7.4969 2.4338 6.84474 2.59735 6.22312C3.21418 2.68169 6.33565 0.601807 10.9525 0.601807C13.9058 0.601807 15.8311 1.46377 16.7096 3.20637C17.1948 4.31931 17.3505 5.5486 17.1582 6.74777L13.1768 6.65411ZM32.8785 19.302H27.9253L23.8505 10.9825L21.8504 12.7251L20.6916 19.302H16.6541L19.8878 0.957786H23.9065L22.7289 7.72213L30.0935 0.957786H35.4954L27.0841 8.19057L32.8785 19.302ZM48.9714 13.3244L51.1396 0.920073H46.9714L44.8405 13.0434C44.8142 13.4845 44.6997 13.9159 44.5038 14.3118C44.308 14.7077 44.0347 15.0602 43.7003 15.3481C42.9376 15.8947 42.021 16.1835 41.0834 16.1725C40.6559 16.1993 40.2274 16.1402 39.8229 15.9986C39.4185 15.8571 39.0462 15.6359 38.7283 15.3481C38.2797 14.8235 38.1675 14.2801 38.3918 13.0434L40.5227 0.920073H36.4853L34.2983 13.3244C34.0218 14.1479 33.9821 15.0327 34.1838 15.8776C34.3854 16.7226 34.8203 17.4937 35.4386 18.1025C36.9068 19.203 38.7101 19.7593 40.5414 19.6765C42.5215 19.6941 44.4659 19.1483 46.149 18.1025C46.9403 17.5625 47.6035 16.8545 48.0913 16.0287C48.579 15.203 48.8795 14.2797 48.9714 13.3244ZM60.1126 10.3639H56.8977L55.5893 7.66566L53.3836 10.3639H50.2247L54.4678 5.41711L52.1686 0.920073H55.2528L56.3743 3.29974L58.2435 0.920073H61.3464L57.4771 5.41711L60.1126 10.3639ZM2.09281 22.5997C2.52272 22.5997 2.7844 22.7871 2.7844 23.1806H3.19568C3.19142 23.0482 3.15974 22.9181 3.1027 22.7987C3.04565 22.6792 2.96444 22.573 2.86426 22.4866C2.76408 22.4003 2.64711 22.3358 2.52074 22.2972C2.39438 22.2586 2.26141 22.2467 2.13023 22.2624C1.49471 22.2624 1.08349 22.6746 1.08349 23.0494C1.08349 23.4241 1.30771 23.649 1.81239 23.7802L2.44796 23.93C2.74703 24.005 2.89654 24.0612 2.89654 24.3423C2.89654 24.6233 2.59748 24.8295 2.20496 24.8295C2.10621 24.8398 2.00639 24.8298 1.91164 24.8C1.81689 24.7703 1.72918 24.7215 1.65392 24.6566C1.57866 24.5916 1.51747 24.512 1.47401 24.4225C1.43055 24.333 1.40578 24.2356 1.40122 24.1361H0.989944C0.994024 24.285 1.02914 24.4313 1.09296 24.5658C1.15679 24.7002 1.24796 24.8198 1.36061 24.9169C1.47325 25.0139 1.60494 25.0863 1.74713 25.1293C1.88932 25.1723 2.03885 25.1851 2.18625 25.1667C2.87784 25.1667 3.28911 24.8482 3.28911 24.3235C3.29374 24.222 3.27596 24.1207 3.2372 24.0268C3.19844 23.9329 3.13965 23.8487 3.06482 23.7802C2.87878 23.6398 2.65995 23.5495 2.42925 23.5178L1.98066 23.4054C1.64421 23.3304 1.49466 23.2555 1.49466 23.0119C1.49466 22.7683 1.6629 22.5997 2.09281 22.5997ZM4.14867 23.0494V23.3118C4.19696 23.2105 4.27441 23.126 4.37102 23.0692C4.46763 23.0124 4.57905 22.986 4.6908 22.9932C4.80309 22.9827 4.91561 23.0102 5.01047 23.0714C5.10533 23.1325 5.17701 23.2237 5.21411 23.3305C5.27246 23.2197 5.36212 23.1286 5.47183 23.0686C5.58154 23.0086 5.70647 22.9824 5.83097 22.9932C5.92231 22.988 6.01357 23.0039 6.09782 23.0396C6.18207 23.0754 6.25709 23.13 6.31698 23.1993C6.41973 23.3467 6.46619 23.5263 6.44783 23.7052V25.0731H6.05527V23.7239V23.7239C6.05527 23.4616 6.05527 23.3305 5.71883 23.3305C5.38238 23.3305 5.30755 23.5366 5.30755 23.8364V25.0731H5.00853V23.6865C5.00853 23.4616 4.89641 23.3305 4.6908 23.3305C4.6293 23.3299 4.56833 23.3427 4.51215 23.3677C4.45596 23.3928 4.40584 23.4297 4.36509 23.4759C4.32434 23.5221 4.29397 23.5765 4.27599 23.6354C4.25801 23.6944 4.25279 23.7565 4.26081 23.8177V25.0731H3.86836V23.0494H4.14867ZM7.1957 23.2556C7.07806 23.3969 7.01804 23.5776 7.02754 23.7615H7.32656C7.30677 23.6815 7.30677 23.5979 7.32656 23.5179C7.37372 23.4544 7.43616 23.4039 7.50807 23.3711C7.57998 23.3384 7.65908 23.3244 7.73784 23.3305C7.99952 23.3305 8.18642 23.443 8.18642 23.6491C8.18642 23.8552 8.1303 23.8552 7.88739 23.8552H7.88729L7.43871 23.9489C7.02749 24.0426 6.84056 24.2299 6.84056 24.5672C6.84019 24.6509 6.85736 24.7338 6.89087 24.8105C6.92437 24.8871 6.97345 24.9559 7.03507 25.0124C7.0967 25.0689 7.16947 25.1118 7.24864 25.1384C7.32781 25.165 7.41171 25.1747 7.49484 25.1668C7.62456 25.1677 7.75305 25.1415 7.87212 25.0899C7.99119 25.0383 8.09821 24.9624 8.18642 24.867C8.2238 25.1293 8.29851 25.1293 8.48538 25.1293H8.48544H8.72844V24.8296C8.6163 24.8296 8.6163 24.7921 8.6163 24.6422V24.6422V23.6865C8.6163 23.2743 8.33597 23.0307 7.84999 23.0307C7.73144 23.0219 7.61231 23.0372 7.49986 23.0759C7.3874 23.1145 7.2839 23.1756 7.1957 23.2556ZM8.03686 24.0613H8.27986V24.2487C8.27752 24.3217 8.26055 24.3935 8.22989 24.4598C8.19923 24.5261 8.15552 24.5855 8.10143 24.6345C8.04734 24.6835 7.98391 24.721 7.91501 24.7449C7.84611 24.7687 7.77314 24.7784 7.70042 24.7734C7.45743 24.7734 7.30785 24.6422 7.30785 24.4735C7.30785 24.3049 7.41999 24.155 7.64429 24.155L8.03686 24.0613ZM9.58829 23.0495V23.3681C9.63055 23.2891 9.68761 23.2191 9.75645 23.1619C9.85162 23.066 9.97723 23.0063 10.1116 22.9933C10.1788 22.974 10.2501 22.974 10.3173 22.9933V23.3306H10.149C9.99362 23.3449 9.84996 23.4195 9.74869 23.5385C9.64742 23.6576 9.59659 23.8115 9.607 23.9676V25.0357H9.21443V23.0495H9.58829ZM11.2338 23.3865H11.6077L11.645 23.0492H11.2711V22.4121H10.8974V23.0492H10.6169V23.3865H10.8599V24.6606C10.8599 24.9979 10.9907 25.1478 11.2711 25.1478H11.6077V24.848H11.3833C11.2338 24.848 11.2338 24.7731 11.2338 24.6608V24.6606V23.3865ZM12.486 25.1107H12.0562V24.6798H12.486V25.1107ZM15.9604 22.9332C15.9973 23.0105 16.0173 23.0949 16.019 23.1806H16.4301C16.4259 23.0482 16.3943 22.9181 16.3373 22.7987C16.2802 22.6792 16.199 22.573 16.0988 22.4866C15.9986 22.4003 15.8817 22.3358 15.7553 22.2972C15.6289 22.2586 15.4959 22.2467 15.3647 22.2624C14.7105 22.2624 14.3179 22.6746 14.3179 23.0494C14.3179 23.4241 14.5423 23.649 15.0469 23.7802L15.6825 23.9301C15.9629 24.005 16.1124 24.0612 16.1124 24.3423C16.1124 24.6234 15.832 24.8295 15.4395 24.8295C15.3398 24.8398 15.2389 24.8299 15.1431 24.8003C15.0473 24.7708 14.9585 24.7222 14.8817 24.6575C14.805 24.5929 14.7421 24.5134 14.6966 24.4238C14.6511 24.3343 14.6241 24.2364 14.6171 24.1361H14.2058C14.2124 24.2858 14.2499 24.4325 14.3158 24.567C14.3816 24.7015 14.4745 24.8209 14.5885 24.9177C14.7026 25.0144 14.8355 25.0865 14.9787 25.1294C15.1219 25.1723 15.2725 25.185 15.4208 25.1667C16.0937 25.1667 16.5236 24.8482 16.5236 24.3235C16.5282 24.222 16.5105 24.1207 16.4718 24.0268C16.433 23.9329 16.3741 23.8487 16.2993 23.7802C16.1132 23.6398 15.8945 23.5495 15.6638 23.5178L15.2152 23.4054C14.8601 23.3304 14.7105 23.2555 14.7105 23.0119C14.7105 22.7683 14.9535 22.5997 15.3274 22.5997C15.4118 22.5863 15.4981 22.5912 15.5805 22.614C15.6629 22.6369 15.7395 22.6772 15.805 22.7323C15.8706 22.7873 15.9235 22.8559 15.9604 22.9332ZM17.308 24.1925C17.308 24.6047 17.551 24.8296 17.8875 24.8296C17.9942 24.8348 18.0996 24.8045 18.1875 24.7436C18.2754 24.6826 18.3407 24.5942 18.3735 24.4923H18.7472C18.7074 24.6889 18.5989 24.8648 18.4413 24.9885C18.2837 25.1121 18.0874 25.1754 17.8875 25.1669C17.7516 25.1675 17.617 25.1395 17.4925 25.0848C17.368 25.0301 17.2564 24.9499 17.1648 24.8492C17.0732 24.7486 17.0037 24.6298 16.9607 24.5005C16.9178 24.3713 16.9024 24.2344 16.9154 24.0988C16.9025 23.9648 16.9174 23.8295 16.9593 23.7016C17.0011 23.5736 17.069 23.4557 17.1586 23.3553C17.2481 23.255 17.3575 23.1743 17.4797 23.1185C17.6019 23.0626 17.7344 23.0327 17.8687 23.0308C18.0523 23.027 18.232 23.0836 18.3805 23.1919C18.529 23.3002 18.6382 23.4541 18.6912 23.6304C18.7248 23.8162 18.7248 24.0066 18.6912 24.1925H17.308ZM18.3735 23.9114C18.3735 23.5367 18.1678 23.3306 17.8687 23.3306C17.7935 23.3305 17.719 23.3457 17.6497 23.3751C17.5804 23.4045 17.5178 23.4476 17.4655 23.5018C17.4131 23.556 17.3723 23.6202 17.3452 23.6906C17.3182 23.761 17.3055 23.836 17.308 23.9114H18.3735ZM20.4868 23.465C20.5805 23.545 20.6404 23.6576 20.6544 23.7802H20.9909C20.9837 23.6743 20.9558 23.5708 20.9087 23.4757C20.8616 23.3807 20.7963 23.2959 20.7164 23.2262C20.6365 23.1566 20.5436 23.1035 20.4431 23.0699C20.3427 23.0363 20.2367 23.023 20.1311 23.0306C19.8485 23.0306 19.5775 23.1432 19.3777 23.3435C19.1779 23.5438 19.0657 23.8154 19.0657 24.0987C19.0657 24.382 19.1779 24.6536 19.3777 24.8539C19.5775 25.0542 19.8485 25.1668 20.1311 25.1668C20.2456 25.1743 20.3604 25.1589 20.4688 25.1213C20.5772 25.0838 20.677 25.0249 20.7623 24.948C20.8477 24.8712 20.9169 24.778 20.9658 24.674C21.0146 24.57 21.0423 24.4572 21.047 24.3423H20.6731C20.6171 24.6796 20.5235 24.8295 20.1497 24.8295C19.7759 24.8295 19.533 24.5484 19.533 24.0987C19.533 23.649 19.7759 23.3492 20.1497 23.3492C20.2726 23.3436 20.3932 23.385 20.4868 23.465ZM22.7843 25.1106V24.9232C22.7099 25.0203 22.6134 25.0982 22.5029 25.1504C22.3923 25.2025 22.2708 25.2274 22.1487 25.223C22.0475 25.2276 21.9465 25.2099 21.8528 25.171C21.7591 25.1322 21.6751 25.0732 21.6067 24.9982C21.5492 24.9282 21.5062 24.8474 21.4805 24.7605C21.4548 24.6735 21.4469 24.5823 21.4571 24.4922V23.0494H21.831V24.3611C21.831 24.6422 21.9619 24.7733 22.2236 24.7733C22.2927 24.782 22.3629 24.775 22.429 24.7529C22.4952 24.7308 22.5556 24.6942 22.6058 24.6457C22.6559 24.5972 22.6946 24.538 22.719 24.4725C22.7435 24.4071 22.753 24.337 22.7469 24.2674V23.0494H23.1395V25.0731L22.7843 25.1106ZM24.0939 23.3679V23.0493H23.7013V25.0355H24.1125V23.9675C24.1021 23.8114 24.153 23.6574 24.2543 23.5384C24.3555 23.4193 24.4992 23.3447 24.6546 23.3304H24.8415V22.9931H24.6172C24.4828 23.0061 24.3572 23.0658 24.262 23.1617C24.1932 23.2189 24.1361 23.2889 24.0939 23.3679ZM25.4581 24.1925C25.4581 24.6047 25.6824 24.8296 26.0375 24.8296C26.1436 24.8317 26.2477 24.8003 26.3349 24.7397C26.4222 24.6792 26.4882 24.5926 26.5235 24.4923H26.8787C26.8388 24.6889 26.7304 24.8648 26.5728 24.9885C26.4152 25.1121 26.2187 25.1754 26.0188 25.1669C25.8845 25.1649 25.752 25.135 25.6298 25.0792C25.5075 25.0233 25.3982 24.9427 25.3086 24.8423C25.2191 24.7419 25.1513 24.6241 25.1094 24.4961C25.0676 24.3682 25.0526 24.2329 25.0655 24.0988C25.0526 23.9648 25.0676 23.8295 25.1094 23.7016C25.1513 23.5736 25.2191 23.4557 25.3086 23.3553C25.3982 23.255 25.5075 23.1743 25.6298 23.1185C25.752 23.0626 25.8845 23.0327 26.0188 23.0308C26.2024 23.027 26.3822 23.0836 26.5307 23.1919C26.6792 23.3002 26.7882 23.4541 26.8413 23.6304C26.866 23.8169 26.866 24.0059 26.8413 24.1925H25.4581ZM26.5235 23.9114C26.5235 23.5367 26.3179 23.3306 26.0188 23.3306C25.9436 23.3305 25.8692 23.3457 25.7999 23.3751C25.7306 23.4045 25.6678 23.4476 25.6155 23.5018C25.5632 23.556 25.5223 23.6202 25.4953 23.6906C25.4682 23.761 25.4556 23.836 25.4581 23.9114H26.5235ZM27.439 25.1107H27.8128L27.8688 24.6798H27.439V25.1107ZM29.7191 22.3185H30.7098C30.8996 22.3013 31.0906 22.3337 31.2642 22.4125C31.4379 22.4913 31.5882 22.6139 31.7005 22.7683C31.875 23.0414 31.9599 23.3624 31.9434 23.6864C31.9675 23.8649 31.9531 24.0464 31.9011 24.2188C31.849 24.3911 31.7607 24.5503 31.6419 24.6853C31.5231 24.8204 31.3767 24.9283 31.2127 25.0016C31.0486 25.075 30.8707 25.1121 30.6911 25.1105H29.7191V22.3185ZM30.6164 24.7545C31.2332 24.7545 31.5509 24.4172 31.5509 23.7052C31.5648 23.4481 31.4995 23.193 31.364 22.9744C31.2809 22.8629 31.1693 22.7762 31.0409 22.7234C30.9125 22.6706 30.7723 22.6537 30.6351 22.6746H30.1116V24.7545H30.6164ZM32.4477 22.7684H32.8402V22.3186H32.4477V22.7684ZM32.4477 25.1106H32.8402V23.0494H32.4477V25.1106ZM35.1405 23.0494V24.9232C35.1548 25.0266 35.1435 25.132 35.1077 25.23C35.0718 25.328 35.0125 25.4157 34.9349 25.4853C34.7354 25.6483 34.4813 25.7288 34.2246 25.7102C34.1048 25.7166 33.9849 25.6982 33.8724 25.6563C33.7598 25.6144 33.6571 25.5499 33.5705 25.4666C33.4773 25.3713 33.4238 25.244 33.4209 25.1106H33.7761C33.7761 25.298 33.963 25.3916 34.2434 25.3916C34.5237 25.3916 34.7854 25.2417 34.7854 24.9044V24.6796C34.7081 24.7611 34.6154 24.8263 34.5127 24.8713C34.41 24.9164 34.2993 24.9404 34.1872 24.942C34.0644 24.9398 33.9434 24.9124 33.8316 24.8614C33.7198 24.8105 33.6195 24.7371 33.5372 24.6458C33.4548 24.5544 33.3921 24.4471 33.3528 24.3304C33.3135 24.2138 33.2985 24.0903 33.3088 23.9676C33.2931 23.841 33.3039 23.7126 33.3405 23.5904C33.3771 23.4683 33.4388 23.3551 33.5214 23.2582C33.6041 23.1612 33.7059 23.0826 33.8206 23.0273C33.9352 22.972 34.0601 22.9412 34.1872 22.937C34.3024 22.9301 34.4175 22.9522 34.522 23.0013C34.6264 23.0504 34.717 23.1249 34.7854 23.2181V23.0494H35.1405ZM34.2434 24.6608C33.912 24.6608 33.7075 24.4247 33.7014 24.0238C33.7075 23.6212 33.912 23.3305 34.2434 23.3305C34.5798 23.3305 34.7854 23.5928 34.7854 24.0051C34.7854 24.4173 34.5798 24.6608 34.2434 24.6608ZM35.7195 22.7684H36.0934V22.3186H35.7195V22.7684ZM35.7195 25.1106H36.0934V23.0494H35.7195V25.1106ZM37.4759 23.3865H37.1208V24.6606C37.1208 24.773 37.1208 24.848 37.2704 24.848H37.4759V25.1478H37.1582C36.8778 25.1478 36.7282 24.9979 36.7282 24.6606V23.3865H36.4666V23.0492H36.7844V22.4121H37.1769V23.0492H37.5321L37.4759 23.3865ZM38.0184 23.2557C37.917 23.4045 37.8648 23.5815 37.869 23.7617L38.1493 23.7804C38.1295 23.7005 38.1295 23.6168 38.1493 23.5368C38.1937 23.4704 38.2558 23.4177 38.3284 23.3846C38.401 23.3515 38.4814 23.3394 38.5605 23.3494C38.8222 23.3494 38.9904 23.4618 38.9904 23.668C38.9904 23.8741 38.9531 23.8741 38.7101 23.8741L38.2614 23.9678C37.8502 24.0615 37.6633 24.2489 37.6633 24.5861C37.6629 24.6698 37.6801 24.7527 37.7136 24.8293C37.7471 24.906 37.7963 24.9748 37.8579 25.0313C37.9195 25.0878 37.9922 25.1307 38.0713 25.1573C38.1505 25.1839 38.2344 25.1936 38.3175 25.1858C38.4473 25.1866 38.5758 25.1604 38.6948 25.1088C38.8139 25.0572 38.9209 24.9813 39.0091 24.886C39.0465 25.1483 39.1212 25.1483 39.3081 25.1483H39.3081H39.5511V24.8484C39.439 24.8484 39.439 24.811 39.439 24.6611V23.7055C39.439 23.2932 39.1587 23.0496 38.654 23.0496C38.4243 23.0393 38.1985 23.1124 38.0184 23.2557ZM38.8783 24.0615H39.1213V24.2489C39.1165 24.3228 39.0972 24.3949 39.0646 24.4613C39.0319 24.5277 38.9866 24.587 38.931 24.6358C38.8754 24.6845 38.8108 24.7218 38.7408 24.7454C38.6708 24.769 38.5968 24.7786 38.5231 24.7735C38.2988 24.7735 38.1493 24.6424 38.1493 24.4737C38.1493 24.3051 38.2614 24.1552 38.4857 24.1552L38.8783 24.0615ZM40.5225 25.1106H40.1299V22.3186H40.5225V25.1106ZM42.3927 25.1106H42.7291L42.7852 22.3186H42.3927V25.1106ZM43.7202 23.0495V23.2743C43.7984 23.1828 43.8961 23.1101 44.0061 23.0614C44.1161 23.0128 44.2355 22.9895 44.3557 22.9933C44.4601 22.9843 44.5653 23 44.6627 23.0391C44.76 23.0781 44.8469 23.1394 44.9164 23.2181C45.0176 23.3662 45.0639 23.5452 45.0472 23.724V25.0731H44.6548V23.7427C44.6639 23.6882 44.6602 23.6323 44.6439 23.5794C44.6277 23.5266 44.5994 23.4782 44.5613 23.4382C44.5233 23.3982 44.4764 23.3676 44.4244 23.3489C44.3725 23.3302 44.317 23.3239 44.2622 23.3305C44.1937 23.3252 44.1248 23.3344 44.0602 23.3577C43.9955 23.381 43.9366 23.4177 43.8871 23.4655C43.8376 23.5133 43.7988 23.5711 43.7732 23.6351C43.7477 23.699 43.7359 23.7677 43.7388 23.8365V25.0731H43.365V23.0495H43.7202ZM46.9781 23.6035C47.0061 23.6586 47.0229 23.7186 47.0277 23.7802H47.3828C47.3782 23.6734 47.3521 23.5687 47.3058 23.4724C47.2595 23.3761 47.1941 23.2903 47.1137 23.2202C47.0332 23.15 46.9394 23.097 46.8378 23.0644C46.7363 23.0319 46.6292 23.0204 46.5231 23.0307C46.2405 23.0307 45.9694 23.1432 45.7696 23.3435C45.5698 23.5438 45.4576 23.8155 45.4576 24.0987C45.4576 24.382 45.5698 24.6536 45.7696 24.8539C45.9694 25.0542 46.2405 25.1668 46.5231 25.1668C46.6366 25.1744 46.7504 25.1589 46.8578 25.1211C46.9651 25.0833 47.0638 25.0241 47.1477 24.947C47.2315 24.87 47.2989 24.7766 47.3457 24.6727C47.3926 24.5687 47.4179 24.4564 47.4202 24.3423H47.0464C46.9903 24.6796 46.8969 24.8295 46.5231 24.8295C46.1492 24.8295 45.9062 24.5484 45.9062 24.0987C45.9062 23.649 46.1492 23.3492 46.5231 23.3492C46.5845 23.3441 46.6462 23.3512 46.7049 23.3701C46.7636 23.389 46.8178 23.4194 46.8647 23.4595C46.9116 23.4995 46.9502 23.5485 46.9781 23.6035ZM48.1304 24.1924C48.1304 24.6046 48.3734 24.8295 48.7099 24.8295C48.8172 24.8381 48.9242 24.8091 49.0128 24.7477C49.1013 24.6862 49.166 24.5959 49.1959 24.4922H49.5697C49.5299 24.6888 49.4213 24.8647 49.2637 24.9884C49.1062 25.112 48.9098 25.1753 48.7099 25.1668C48.5755 25.1648 48.4431 25.1349 48.3208 25.0791C48.1986 25.0232 48.0893 24.9426 47.9997 24.8422C47.9101 24.7418 47.8422 24.624 47.8004 24.496C47.7585 24.3681 47.7436 24.2328 47.7566 24.0987C47.7408 23.9657 47.7532 23.8308 47.7928 23.7029C47.8325 23.5749 47.8984 23.4567 47.9866 23.356C48.0747 23.2553 48.183 23.1743 48.3044 23.1183C48.4258 23.0622 48.5575 23.0323 48.6912 23.0306C48.8755 23.0237 49.0568 23.079 49.2059 23.1878C49.3551 23.2965 49.4634 23.4524 49.5136 23.6303C49.5799 23.8101 49.6116 24.0008 49.607 24.1924H48.1304ZM49.1959 23.9113C49.1959 23.5366 49.0089 23.3305 48.6912 23.3305C48.5423 23.3397 48.4022 23.4045 48.2985 23.512C48.1947 23.6194 48.1348 23.7618 48.1304 23.9113H49.1959ZM50.4488 23.2741V23.0493H50.0749V25.0729H50.4488V23.8363C50.4456 23.7657 50.4577 23.6953 50.4843 23.6299C50.511 23.5645 50.5516 23.5057 50.6031 23.4576C50.6547 23.4095 50.7161 23.3732 50.783 23.3512C50.85 23.3292 50.9208 23.3221 50.9908 23.3303C51.2525 23.3303 51.3646 23.4802 51.3646 23.7425V25.0729H51.7572V23.7238C51.7739 23.545 51.7276 23.366 51.6263 23.2179C51.5588 23.1418 51.4749 23.0821 51.3811 23.0431C51.2872 23.0042 51.1857 22.9871 51.0843 22.993C50.9636 22.9849 50.8427 23.0061 50.732 23.0551C50.6213 23.104 50.5241 23.1792 50.4488 23.2741ZM53.1401 23.3865H52.7662V24.6606C52.7662 24.773 52.7663 24.848 52.9158 24.848H53.1401V25.1478H52.8223C52.5233 25.1478 52.3924 24.9979 52.3924 24.6606V23.3865H52.1308V23.0492H52.3924V22.4121H52.7662V23.0492H53.1401V23.3865ZM53.6077 22.7684H53.9067L53.9815 22.3186H53.6077V22.7684ZM53.6077 25.1106H53.9067L53.9815 23.0494H53.6077V25.1106ZM54.9343 25.1106L54.2427 23.0869H54.6539L54.9903 24.1737L55.1586 24.7358V24.5859V24.2674L55.495 23.1806H55.9062L55.2146 25.2043L54.9343 25.1106ZM57.215 24.8294C56.8599 24.8294 56.6169 24.6045 56.6169 24.1923H58.0187C58.0434 24.0057 58.0434 23.8167 58.0187 23.6302C57.9649 23.4508 57.8531 23.2945 57.7008 23.1859C57.5485 23.0773 57.3643 23.0226 57.1776 23.0306C57.044 23.0323 56.9122 23.0621 56.7908 23.1182C56.6695 23.1742 56.5612 23.2552 56.4731 23.3559C56.385 23.4567 56.3189 23.5749 56.2793 23.7028C56.2397 23.8308 56.2273 23.9656 56.243 24.0986C56.2301 24.2327 56.2451 24.368 56.2869 24.4959C56.3288 24.6239 56.3965 24.7418 56.4861 24.8421C56.5757 24.9425 56.685 25.0231 56.8073 25.079C56.9295 25.1348 57.062 25.1647 57.1963 25.1667C57.3962 25.1752 57.5927 25.1119 57.7503 24.9883C57.9079 24.8646 58.0163 24.6887 58.0562 24.4921H57.701C57.6657 24.5924 57.5997 24.679 57.5124 24.7395C57.4252 24.8001 57.3211 24.8316 57.215 24.8294ZM57.1776 23.3304C57.4953 23.3304 57.6823 23.5365 57.6823 23.9112H56.6356C56.6331 23.8374 56.6451 23.7638 56.671 23.6947C56.6969 23.6255 56.7362 23.5622 56.7865 23.5082C56.8368 23.4543 56.8972 23.4107 56.9644 23.3802C57.0315 23.3497 57.1039 23.3328 57.1776 23.3304ZM59.7196 23.7053C59.7056 23.5992 59.6509 23.5027 59.5672 23.4363C59.4834 23.3698 59.3772 23.3386 59.271 23.3493C59.028 23.3493 58.8784 23.3493 58.8784 23.5929C58.8784 23.7791 58.8784 23.7791 58.9871 23.7856C59.0205 23.7876 59.0642 23.7902 59.1214 23.799L59.57 23.9114C59.9999 24.0238 60.1682 24.2112 60.1682 24.511C60.1682 24.8108 59.8504 25.1668 59.327 25.1668C59.218 25.1827 59.1068 25.1754 59.0008 25.1453C58.8948 25.1153 58.7964 25.0633 58.7118 24.9926C58.6271 24.9219 58.5583 24.8342 58.5097 24.7351C58.4611 24.6359 58.434 24.5277 58.4298 24.4173H58.8037C58.8037 24.6797 59.028 24.8296 59.3457 24.8296C59.6635 24.8296 59.7943 24.7171 59.7943 24.5298V24.5297C59.7943 24.3424 59.7943 24.3236 59.4766 24.2674L59.084 24.155C58.9272 24.1302 58.7792 24.0657 58.6541 23.9676C58.6059 23.926 58.5674 23.8742 58.5415 23.8158C58.5157 23.7575 58.503 23.6942 58.5046 23.6303C58.5046 23.2743 58.8224 23.0307 59.271 23.0307C59.3954 23.0229 59.52 23.0424 59.6362 23.0877C59.7524 23.133 59.8574 23.2031 59.9439 23.2931C60.0381 23.4099 60.0907 23.555 60.0933 23.7053H59.7196ZM60.6733 25.1107H61.0844V24.6798H60.6733V25.1107Z" fill="white"/>
</svg>
